<?xml version="1.0" encoding="UTF-8" standalone="no"?>
<svg
   version="1.1"
   width="328.33215"
   height="247.47195"
   viewBox="0 0 328.33215 247.47195"
   id="svg19"
   sodipodi:docname="dwdwd.svg"
   inkscape:version="1.3 (0e150ed6c4, 2023-07-21)"
   xmlns:inkscape="http://www.inkscape.org/namespaces/inkscape"
   xmlns:sodipodi="http://sodipodi.sourceforge.net/DTD/sodipodi-0.dtd"
   xmlns="http://www.w3.org/2000/svg"
   xmlns:svg="http://www.w3.org/2000/svg">
  <defs
     id="defs19" />
  <sodipodi:namedview
     id="namedview19"
     pagecolor="#ffffff"
     bordercolor="#000000"
     borderopacity="0.25"
     inkscape:showpageshadow="2"
     inkscape:pageopacity="0.0"
     inkscape:pagecheckerboard="0"
     inkscape:deskcolor="#d1d1d1"
     showgrid="false"
     inkscape:zoom="1.6913994"
     inkscape:cx="817.66612"
     inkscape:cy="151.35396"
     inkscape:window-width="1366"
     inkscape:window-height="768"
     inkscape:window-x="0"
     inkscape:window-y="0"
     inkscape:window-maximized="1"
     inkscape:current-layer="svg19" />
  <g
     id="g19"
     transform="translate(-669.49768)">
    <g
       transform="translate(-0.60606061,0.23599648)"
       id="g18">
      <svg
         viewBox="0 0 396 98"
         data-background-color="#ffffff"
         preserveAspectRatio="xMidYMid"
         height="247"
         width="1000"
         version="1.1"
         id="svg18">
        <g
           id="tight-bounds"
           transform="translate(0.24,-0.09363354)">
          <svg
             viewBox="0 0 395.52 98.187268"
             height="98.187271"
             width="395.51999"
             version="1.1"
             id="svg17">
            <g
               id="g17">
              <svg
                 viewBox="0 0 642.87189 159.59202"
                 height="98.187271"
                 width="395.51999"
                 version="1.1"
                 id="svg16">
                <g
                   transform="translate(431.13401)"
                   id="g16">
                  <svg
                     viewBox="0 0 211.73788 159.59202"
                     height="159.59201"
                     width="211.73787"
                     version="1.1"
                     id="svg15">
                    <g
                       id="g15">
                      <svg
                         version="1.1"
                         x="0"
                         y="0"
                         viewBox="1.063 17.256001 97.722702 73.655991"
                         enable-background="new 0 0 100 100"
                         xml:space="preserve"
                         height="159.59201"
                         width="211.73787"
                         class="icon-icon-0"
                         data-fill-palette-color="accent"
                         id="icon-0"><g
                           id="g20"><g
                             id="g21"><rect
                               x="21.937"
                               y="40.207001"
                               width="17.049999"
                               height="3.257"
                               fill="#4b91f1"
                               data-fill-palette-color="accent"
                               id="rect6" /><rect
                               x="1.063"
                               y="40.207001"
                               width="17.052999"
                               height="3.257"
                               fill="#4b91f1"
                               data-fill-palette-color="accent"
                               id="rect7" /><rect
                               x="42.806"
                               y="40.207001"
                               width="17.052"
                               height="3.257"
                               fill="#4b91f1"
                               data-fill-palette-color="accent"
                               id="rect8" /><polygon
                               points="93.429,48.329 77.46,41.663 76.5,44.795 92.472,51.461 "
                               fill="#4b91f1"
                               data-fill-palette-color="accent"
                               id="polygon8" /><path
                               d="M 57.586,17.319 H 45.074 c -1.259,0 -2.268,1.298 -2.268,2.886 v 17.58 h 17.052 v -17.58 c -10e-4,-1.587 -1.014,-2.886 -2.272,-2.886 z"
                               fill="#4b91f1"
                               data-fill-palette-color="accent"
                               id="path8" /><path
                               d="m 97.271,28.055 -11.85,-4.496 c -1.186,-0.451 -2.491,0.283 -2.899,1.645 l -4.346,14.134 15.968,6.667 4.513,-14.687 C 99.072,29.965 98.45,28.5 97.271,28.055 Z"
                               fill="#4b91f1"
                               data-fill-palette-color="accent"
                               id="path9" /><path
                               d="M 15.85,17.256 H 3.329 c -1.25,0 -2.265,1.428 -2.265,3.202 V 37.785 H 18.117 V 20.458 c 0,-1.774 -1.013,-3.202 -2.267,-3.202 z"
                               fill="#4b91f1"
                               data-fill-palette-color="accent"
                               id="path10"
                               inkscape:export-filename="path10.png"
                               inkscape:export-xdpi="96"
                               inkscape:export-ydpi="96" /><path
                               d="M 36.72,26.181 H 24.2 c -1.255,0 -2.263,1.133 -2.263,2.537 v 9.067 h 17.05 v -9.067 c 0,-1.404 -1.017,-2.537 -2.267,-2.537 z"
                               fill="#4b91f1"
                               data-fill-palette-color="accent"
                               id="path11" /><path
                               d="m 42.806,88.031 c 0,1.588 1.009,2.88 2.268,2.88 h 12.512 c 1.258,0 2.271,-1.292 2.271,-2.88 V 45.883 H 42.806 Z"
                               fill="#4b91f1"
                               data-fill-palette-color="accent"
                               id="path12" /><path
                               d="m 21.937,88.376 c 0,1.401 1.008,2.535 2.263,2.535 h 12.52 c 1.25,0 2.267,-1.134 2.267,-2.535 V 45.883 h -17.05 z"
                               fill="#4b91f1"
                               data-fill-palette-color="accent"
                               id="path13" /><path
                               d="m 64.756,83.012 c -0.421,1.361 0.21,2.818 1.39,3.271 l 11.846,4.499 c 1.184,0.445 2.486,-0.289 2.902,-1.646 L 91.757,53.78 75.78,47.119 Z"
                               fill="#4b91f1"
                               data-fill-palette-color="accent"
                               id="path14" /><path
                               d="m 1.063,87.705 c 0,1.769 1.016,3.206 2.265,3.206 H 15.85 c 1.254,0 2.267,-1.438 2.267,-3.206 V 45.883 H 1.063 Z"
                               fill="#4b91f1"
                               data-fill-palette-color="accent"
                               id="path15" /></g></g></svg>
                    </g>
                  </svg>
                </g>
              </svg>
            </g>
            <defs
               id="defs17" />
          </svg>
        </g>
      </svg>
    </g>
  </g>
</svg>
