<svg xmlns="http://www.w3.org/2000/svg" version="1.1" xmlns:xlink="http://www.w3.org/1999/xlink" xmlns:svgjs="http://svgjs.dev/svgjs" width="1000" height="1000" viewBox="0 0 1000 1000"><rect width="1000" height="1000" fill="#ffffff"></rect><g transform="matrix(0.7,0,0,0.7,149.57575757575756,413.7151975341226)"><svg viewBox="0 0 396 98" data-background-color="#ffffff" preserveAspectRatio="xMidYMid meet" height="247" width="1000" xmlns="http://www.w3.org/2000/svg" xmlns:xlink="http://www.w3.org/1999/xlink"><g id="tight-bounds" transform="matrix(1,0,0,1,0.2400000000000091,-0.09363353828121035)"><svg viewBox="0 0 395.52 98.18726776814822" height="98.18726776814822" width="395.52"><g><svg viewBox="0 0 642.8718866443126 159.59201576294433" height="98.18726776814822" width="395.52"><g><rect width="5.711398857187226" height="116.05642246147539" x="410.47130590886707" y="21.767796650734468" fill="#000000" opacity="1" stroke-width="0" stroke="transparent" fill-opacity="1" class="rect-o-0" data-fill-palette-color="primary" rx="1%" id="o-0" data-palette-color="#77d4fc"></rect></g><g transform="matrix(1,0,0,1,0,22.05649421904659)"><svg viewBox="0 0 395.52 115.47902732485115" height="115.47902732485115" width="395.52"><g id="textblocktransform"><svg viewBox="0 0 395.52 115.47902732485115" height="115.47902732485115" width="395.52" id="textblock"><g><svg viewBox="0 0 395.52 63.33259589652097" height="63.33259589652097" width="395.52"><g transform="matrix(1,0,0,1,0,0)"><svg width="395.52" viewBox="2.5 -35.45000076293945 230.67999267578125 35.900001525878906" height="63.33259589652097" data-palette-color="#77d4fc"><g class="wordmark-text-0" data-fill-palette-color="primary" id="text-0"><path d="M5.15-33.95L2.5-34.25 2.55-35 13.25-35Q24.05-35 24.05-26.55L24.05-26.55Q24.05-23.3 19.75-19.45L19.75-19.45Q26.1-17.9 26.1-10.35L26.1-10.35Q26.1-4.45 23.13-2.23 20.15 0 14 0L14 0 12.55 0 2.5 0.05 2.55-0.65 5.15-1Q5.65-1.05 5.75-1.65L5.75-1.65 5.75-33.25Q5.65-33.9 5.15-33.95L5.15-33.95ZM15-19.15L15-19.15 9.15-19.15 9.15-0.75 13.75-0.75Q22.7-0.75 22.7-10.15L22.7-10.15Q22.7-14.95 20.78-17.05 18.85-19.15 15-19.15ZM9.15-19.9L15.25-19.9Q17.1-19.9 18.45-19.7L18.45-19.7Q20.65-23.15 20.65-26.25L20.65-26.25Q20.65-34.25 13-34.25L13-34.25 9.15-34.25 9.15-19.9ZM29.35-17.4L29.35-17.4Q29.35-25.65 33.57-30.55 37.8-35.45 44.1-35.45L44.1-35.45Q58.85-35.45 58.85-17.4L58.85-17.4Q58.85-9.1 54.65-4.33 50.45 0.45 44.1 0.45L44.1 0.45Q29.35 0.45 29.35-17.4ZM32.75-17.5L32.75-17.5Q32.75-0.55 44.1-0.55L44.1-0.55Q49-0.55 52.22-5.05 55.45-9.55 55.45-17.5L55.45-17.5Q55.45-34.45 44.1-34.45L44.1-34.45Q39.25-34.45 36-29.9 32.75-25.35 32.75-17.5ZM62.84-17.4L62.84-17.4Q62.84-25.65 67.07-30.55 71.3-35.45 77.59-35.45L77.59-35.45Q92.34-35.45 92.34-17.4L92.34-17.4Q92.34-9.1 88.14-4.33 83.94 0.45 77.59 0.45L77.59 0.45Q62.84 0.45 62.84-17.4ZM66.25-17.5L66.25-17.5Q66.25-0.55 77.59-0.55L77.59-0.55Q82.5-0.55 85.72-5.05 88.94-9.55 88.94-17.5L88.94-17.5Q88.94-34.45 77.59-34.45L77.59-34.45Q72.75-34.45 69.5-29.9 66.25-25.35 66.25-17.5ZM112.89-34.95L122.64-35Q122.64-34.95 122.69-34.25L122.69-34.25 118.44-33.85 106.29-19.7 121.09-0.9 123.44-0.75Q123.44-0.7 123.39 0L123.39 0 117.99 0.05 103.54-18.2 103.49-18.25 103.49-0.95 106.89-0.75Q106.89-0.7 106.84 0L106.84 0 96.84 0.05Q96.84-0.4 96.89-0.65L96.89-0.65 99.49-1Q99.99-1.05 100.09-1.65L100.09-1.65 100.09-33.3Q99.89-33.9 99.49-33.95L99.49-33.95 96.89-34.2Q96.84-34.5 96.84-34.95L96.84-34.95 106.84-35Q106.84-34.95 106.89-34.25L106.89-34.25 103.49-33.95 103.49-18.3 103.59-18.35 115.84-33Q116.24-33.8 115.54-33.95L115.54-33.95 112.94-34.2Q112.89-34.5 112.89-34.95L112.89-34.95ZM103.49-18.25L103.49-18.3 103.49-18.25ZM126.44-17.4L126.44-17.4Q126.44-25.65 130.66-30.55 134.89-35.45 141.19-35.45L141.19-35.45Q155.94-35.45 155.94-17.4L155.94-17.4Q155.94-9.1 151.74-4.33 147.54 0.45 141.19 0.45L141.19 0.45Q126.44 0.45 126.44-17.4ZM129.84-17.5L129.84-17.5Q129.84-0.55 141.19-0.55L141.19-0.55Q146.09-0.55 149.31-5.05 152.54-9.55 152.54-17.5L152.54-17.5Q152.54-34.45 141.19-34.45L141.19-34.45Q136.34-34.45 133.09-29.9 129.84-25.35 129.84-17.5ZM160.44-34.4L160.44-34.4 160.54-35 170.94-35Q177.09-35 180.06-32.9 183.04-30.8 183.04-24.98 183.04-19.15 179.96-16.38 176.89-13.6 170.94-13.6L170.94-13.6 167.09-13.6 167.09-0.95 170.54-0.75Q170.54-0.7 170.49 0L170.49 0 160.49 0.05Q160.49-0.4 160.54-0.65L160.54-0.65 163.14-1Q163.49-1.05 163.69-1.45L163.69-1.45 163.69-33.45Q163.49-33.9 163.14-33.95L163.14-33.95 160.49-34.25Q160.44-34.3 160.44-34.4ZM170.69-34.25L170.69-34.25 167.09-34.25 167.09-14.35 170.69-14.35Q175.19-14.35 177.41-16.75 179.64-19.15 179.64-24.78 179.64-30.4 177.44-32.33 175.24-34.25 170.69-34.25ZM197.59 0L187.53 0.05 187.59-0.65 190.19-1Q190.69-1.05 190.78-1.65L190.78-1.65 190.84-1.65 190.84-33.25 190.78-33.25Q190.69-33.9 190.19-33.95L190.19-33.95 187.59-34.2 187.53-34.95 197.59-35Q197.59-34.95 197.63-34.25L197.63-34.25 194.23-33.95 194.23-0.95 197.63-0.75Q197.63-0.7 197.59 0L197.59 0ZM210.93 0L200.88 0.05 200.93-0.65 203.53-1Q203.88-1.05 204.13-1.65L204.13-1.65 214.93-35 218.23-35 229.73-0.95 233.18-0.75Q233.18-0.7 233.13 0L233.13 0 223.13 0.05Q223.13-0.4 223.18-0.65L223.18-0.65 225.78-1Q226.18-1.05 226.18-1.6L226.18-1.6 223.43-9.75 207.83-9.75 205.18-1.05 210.98-0.75Q210.98-0.7 210.93 0L210.93 0ZM223.08-10.75L215.28-34.05 208.13-10.75 223.08-10.75Z" fill="#000000" data-fill-palette-color="primary"></path></g></svg></g></svg></g><g transform="matrix(1,0,0,1,163.31020800000002,78.28390180538806)"><svg viewBox="0 0 232.20979199999996 37.19512551946309" height="37.19512551946309" width="232.20979199999996"><g transform="matrix(1,0,0,1,0,0)"><svg width="232.20979199999996" viewBox="1.149999976158142 -35.099998474121094 223.48001098632812 35.79999923706055" height="37.19512551946309" data-palette-color="#4b91f1"><path d="M13.7 0L1.15 0 1.15-1.05 1.95-1.3Q3-1.7 3.38-2.35 3.75-3 3.75-4.1L3.75-4.1Q3.8-6.95 3.8-9.83 3.8-12.7 3.8-15.6L3.8-15.6 3.8-17.4Q3.8-20.3 3.78-23.18 3.75-26.05 3.75-28.95L3.75-28.95Q3.75-30.15 3.4-30.78 3.05-31.4 1.95-31.75L1.95-31.75 1.15-32 1.15-33.05 15.25-33.05Q21.25-33.05 23.95-30.83 26.65-28.6 26.65-25.2L26.65-25.2Q26.65-22.6 24.75-20.53 22.85-18.45 18.1-17.55L18.1-17.55Q23.6-16.95 26.05-14.7 28.5-12.45 28.5-9.2L28.5-9.2Q28.5-7.6 27.8-5.98 27.1-4.35 25.43-3 23.75-1.65 20.9-0.83 18.05 0 13.7 0L13.7 0ZM10.9-31.6L10.9-17.9 13.25-17.9Q16.65-17.9 18.18-19.43 19.7-20.95 19.7-24.65L19.7-24.65Q19.7-28.5 18.3-30.05 16.9-31.6 13.9-31.6L13.9-31.6 10.9-31.6ZM10.9-16.45L10.9-1.45 13.65-1.45Q17.4-1.45 19.25-3.3 21.1-5.15 21.1-9.25L21.1-9.25Q21.1-13.2 19.33-14.83 17.55-16.45 13.5-16.45L13.5-16.45 10.9-16.45ZM43.25 0.7L43.25 0.7Q39.55 0.7 36.77-0.85 34-2.4 32.47-5.25 30.95-8.1 30.95-12.05L30.95-12.05Q30.95-16 32.57-18.85 34.2-21.7 36.97-23.23 39.75-24.75 43.25-24.75L43.25-24.75Q46.75-24.75 49.52-23.23 52.3-21.7 53.92-18.88 55.55-16.05 55.55-12.05L55.55-12.05Q55.55-8.1 54.02-5.23 52.5-2.35 49.75-0.83 47 0.7 43.25 0.7ZM43.25-0.7L43.25-0.7Q45.05-0.7 46.17-1.68 47.3-2.65 47.8-5.1 48.3-7.55 48.3-11.95L48.3-11.95Q48.3-16.4 47.8-18.88 47.3-21.35 46.17-22.33 45.05-23.3 43.25-23.3L43.25-23.3Q41.45-23.3 40.35-22.33 39.25-21.35 38.72-18.88 38.2-16.4 38.2-11.95L38.2-11.95Q38.2-7.55 38.72-5.1 39.25-2.65 40.35-1.68 41.45-0.7 43.25-0.7ZM70.34 0.7L70.34 0.7Q66.65 0.7 63.87-0.85 61.09-2.4 59.57-5.25 58.05-8.1 58.05-12.05L58.05-12.05Q58.05-16 59.67-18.85 61.3-21.7 64.07-23.23 66.84-24.75 70.34-24.75L70.34-24.75Q73.84-24.75 76.62-23.23 79.4-21.7 81.02-18.88 82.65-16.05 82.65-12.05L82.65-12.05Q82.65-8.1 81.12-5.23 79.59-2.35 76.84-0.83 74.09 0.7 70.34 0.7ZM70.34-0.7L70.34-0.7Q72.15-0.7 73.27-1.68 74.4-2.65 74.9-5.1 75.4-7.55 75.4-11.95L75.4-11.95Q75.4-16.4 74.9-18.88 74.4-21.35 73.27-22.33 72.15-23.3 70.34-23.3L70.34-23.3Q68.55-23.3 67.45-22.33 66.34-21.35 65.82-18.88 65.3-16.4 65.3-11.95L65.3-11.95Q65.3-7.55 65.82-5.1 66.34-2.65 67.45-1.68 68.55-0.7 70.34-0.7ZM96.64 0L85.04 0 85.04-0.95 85.79-1.2Q87.49-1.7 87.49-3.65L87.49-3.65 87.49-29.55Q87.49-30.55 87.09-31.08 86.69-31.6 85.69-31.85L85.69-31.85 85.04-32.05 85.04-33 93.79-35.1 94.44-34.65 94.24-27.6 94.24-3.65Q94.24-1.65 95.94-1.15L95.94-1.15 96.64-0.95 96.64 0ZM111.84 0L103.34 0 94.29-12.5 103.14-20.7Q103.79-21.25 103.89-21.93 103.99-22.6 103.04-22.85L103.04-22.85 102.24-23.05 102.24-24 110.04-24 110.04-23.05 108.59-22.7Q107.49-22.4 106.79-21.88 106.09-21.35 105.14-20.5L105.14-20.5 99.64-15.35 108.14-3.7Q108.94-2.65 109.59-2.08 110.24-1.5 111.34-1.1L111.34-1.1 111.84-0.95 111.84 0ZM122.19 0.7L122.19 0.7Q119.79 0.7 117.87 0.18 115.94-0.35 114.19-1.3L114.19-1.3 114.19-7.2 115.54-7.2 117.04-4.35Q117.99-2.5 119.22-1.6 120.44-0.7 122.34-0.7L122.34-0.7Q124.69-0.7 126.09-1.73 127.49-2.75 127.49-4.5L127.49-4.5Q127.49-6.1 126.44-7.1 125.39-8.1 122.69-8.95L122.69-8.95 120.49-9.65Q117.54-10.55 115.82-12.38 114.09-14.2 114.09-16.95L114.09-16.95Q114.09-19.1 115.24-20.88 116.39-22.65 118.59-23.7 120.79-24.75 123.94-24.75L123.94-24.75Q125.99-24.75 127.72-24.28 129.44-23.8 131.09-22.95L131.09-22.95 130.79-17.6 129.49-17.6 127.94-20.45Q127.14-22.05 126.32-22.68 125.49-23.3 123.79-23.3L123.79-23.3Q121.99-23.3 120.62-22.38 119.24-21.45 119.24-19.8L119.24-19.8Q119.24-18.25 120.39-17.28 121.54-16.3 124.09-15.45L124.09-15.45 126.24-14.8Q129.89-13.65 131.44-11.75 132.99-9.85 132.99-7.2L132.99-7.2Q132.99-3.65 130.17-1.48 127.34 0.7 122.19 0.7ZM144.69 0.7L144.69 0.7Q141.59 0.7 139.81-0.83 138.04-2.35 138.04-5.8L138.04-5.8Q138.04-7 138.06-8.08 138.09-9.15 138.09-10.6L138.09-10.6 138.09-22.45 134.54-22.45 134.54-23.55 135.89-23.75Q137.34-24 138.36-24.65 139.39-25.3 140.24-26.45L140.24-26.45 143.49-30.95 144.99-30.95 144.84-24 150.54-24 150.54-22.45 144.79-22.45 144.79-5.4Q144.79-3.6 145.56-2.7 146.34-1.8 147.49-1.8L147.49-1.8Q148.49-1.8 149.29-2.27 150.09-2.75 150.89-3.55L150.89-3.55 151.54-2.8Q150.59-1.15 148.89-0.23 147.19 0.7 144.69 0.7ZM165.69 0.7L165.69 0.7Q161.99 0.7 159.21-0.85 156.44-2.4 154.91-5.25 153.39-8.1 153.39-12.05L153.39-12.05Q153.39-16 155.01-18.85 156.64-21.7 159.41-23.23 162.19-24.75 165.69-24.75L165.69-24.75Q169.19-24.75 171.96-23.23 174.74-21.7 176.36-18.88 177.99-16.05 177.99-12.05L177.99-12.05Q177.99-8.1 176.46-5.23 174.94-2.35 172.19-0.83 169.44 0.7 165.69 0.7ZM165.69-0.7L165.69-0.7Q167.49-0.7 168.61-1.68 169.74-2.65 170.24-5.1 170.74-7.55 170.74-11.95L170.74-11.95Q170.74-16.4 170.24-18.88 169.74-21.35 168.61-22.33 167.49-23.3 165.69-23.3L165.69-23.3Q163.89-23.3 162.79-22.33 161.69-21.35 161.16-18.88 160.64-16.4 160.64-11.95L160.64-11.95Q160.64-7.55 161.16-5.1 161.69-2.65 162.79-1.68 163.89-0.7 165.69-0.7ZM192.78 0L180.28 0 180.28-0.95 181.03-1.2Q182.03-1.45 182.41-2.05 182.78-2.65 182.78-3.65L182.78-3.65 182.78-18.3Q182.73-19.4 182.38-19.98 182.03-20.55 181.03-20.75L181.03-20.75 180.28-20.95 180.28-21.85 188.43-24.75 189.03-24.2 189.48-19.8 189.48-19.45Q190.23-20.85 191.38-22.05 192.53-23.25 193.88-24 195.23-24.75 196.58-24.75L196.58-24.75Q198.48-24.75 199.43-23.75 200.38-22.75 200.38-21.2L200.38-21.2Q200.38-19.5 199.43-18.63 198.48-17.75 197.13-17.75L197.13-17.75Q195.13-17.75 193.68-19.55L193.68-19.55 193.58-19.65Q193.08-20.25 192.46-20.33 191.83-20.4 191.23-19.7L191.23-19.7Q190.73-19.2 190.31-18.53 189.88-17.85 189.53-16.95L189.53-16.95 189.53-3.85Q189.53-2.9 189.93-2.27 190.33-1.65 191.28-1.4L191.28-1.4 192.78-0.95 192.78 0ZM214.53-24.75L214.53-24.75Q217.68-24.75 219.93-23.45 222.18-22.15 223.41-19.88 224.63-17.6 224.63-14.65L224.63-14.65Q224.63-14 224.58-13.43 224.53-12.85 224.38-12.35L224.38-12.35 209.33-12.35Q209.38-7.2 211.26-4.95 213.13-2.7 216.73-2.7L216.73-2.7Q219.23-2.7 220.78-3.53 222.33-4.35 223.63-5.85L223.63-5.85 224.43-5.1Q222.93-2.35 220.36-0.83 217.78 0.7 214.23 0.7L214.23 0.7Q210.68 0.7 207.98-0.8 205.28-2.3 203.76-5.13 202.23-7.95 202.23-11.9L202.23-11.9Q202.23-16 204.01-18.85 205.78-21.7 208.61-23.23 211.43-24.75 214.53-24.75ZM214.28-23.3L214.28-23.3Q212.83-23.3 211.76-22.48 210.68-21.65 210.06-19.58 209.43-17.5 209.33-13.75L209.33-13.75 218.28-13.75Q218.83-18.8 217.88-21.05 216.93-23.3 214.28-23.3Z" opacity="1" transform="matrix(1,0,0,1,0,0)" fill="#000000" class="slogan-text-1" data-fill-palette-color="secondary" id="text-1"></path></svg></g></svg></g></svg></g></svg></g><g transform="matrix(1,0,0,1,431.1340106749214,0)"><svg viewBox="0 0 211.7378759693911 159.59201576294433" height="159.59201576294433" width="211.7378759693911"><g><svg xmlns="http://www.w3.org/2000/svg" xmlns:xlink="http://www.w3.org/1999/xlink" version="1.1" x="0" y="0" viewBox="1.062999963760376 17.256000518798828 97.72270202636719 73.65599060058594" enable-background="new 0 0 100 100" xml:space="preserve" height="159.59201576294433" width="211.7378759693911" class="icon-icon-0" data-fill-palette-color="accent" id="icon-0"><rect x="21.937" y="40.207" width="17.05" height="3.257" fill="#000000" data-fill-palette-color="accent"></rect><rect x="1.063" y="40.207" width="17.053" height="3.257" fill="#000000" data-fill-palette-color="accent"></rect><rect x="42.806" y="40.207" width="17.052" height="3.257" fill="#000000" data-fill-palette-color="accent"></rect><polygon points="76.5,44.795 92.472,51.461 93.429,48.329 77.46,41.663 " fill="#000000" data-fill-palette-color="accent"></polygon><path d="M57.586 17.319H45.074c-1.259 0-2.268 1.298-2.268 2.886v17.58h17.052v-17.58C59.857 18.618 58.844 17.319 57.586 17.319z" fill="#000000" data-fill-palette-color="accent"></path><path d="M97.271 28.055l-11.85-4.496c-1.186-0.451-2.491 0.283-2.899 1.645l-4.346 14.134 15.968 6.667 4.513-14.687C99.072 29.965 98.45 28.5 97.271 28.055z" fill="#000000" data-fill-palette-color="accent"></path><path d="M15.85 17.256H3.329c-1.25 0-2.265 1.428-2.265 3.202v17.327h17.053V20.458C18.117 18.684 17.104 17.256 15.85 17.256z" fill="#000000" data-fill-palette-color="accent"></path><path d="M36.72 26.181H24.2c-1.255 0-2.263 1.133-2.263 2.537v9.067h17.05v-9.067C38.987 27.314 37.97 26.181 36.72 26.181z" fill="#000000" data-fill-palette-color="accent"></path><path d="M42.806 88.031c0 1.588 1.009 2.88 2.268 2.88h12.512c1.258 0 2.271-1.292 2.271-2.88V45.883H42.806V88.031z" fill="#000000" data-fill-palette-color="accent"></path><path d="M21.937 88.376c0 1.401 1.008 2.535 2.263 2.535H36.72c1.25 0 2.267-1.134 2.267-2.535V45.883h-17.05V88.376z" fill="#000000" data-fill-palette-color="accent"></path><path d="M64.756 83.012c-0.421 1.361 0.21 2.818 1.39 3.271l11.846 4.499c1.184 0.445 2.486-0.289 2.902-1.646L91.757 53.78 75.78 47.119 64.756 83.012z" fill="#000000" data-fill-palette-color="accent"></path><path d="M1.063 87.705c0 1.769 1.016 3.206 2.265 3.206H15.85c1.254 0 2.267-1.438 2.267-3.206V45.883H1.063V87.705z" fill="#000000" data-fill-palette-color="accent"></path></svg></g></svg></g></svg></g><defs></defs></svg><rect width="395.52" height="98.18726776814822" fill="none" stroke="none" visibility="hidden"></rect></g></svg></g></svg>